# xmcd CD database file
#
# Track frame offsets:
#	150
#	17487
#	39200
#
# Disc length: 753 seconds
#
# Revision: 0
# Processed by: cddbd v1.5.1PL0 Copyright (c) Steve Scherf et al.
# Submitted via: CDex 1.51
#
DISCID=1302ef03
DTITLE=東亜佐美 - 仕事も遊びも夢も友達も趣味も恋も
DYEAR=1995
DGENRE=JPop
TTITLE0=仕事も遊びも夢も友達も趣味も恋も
TTITLE1=食欲の秋こそダイエットチャンス
TTITLE2=仕事も遊びも夢も友達も趣味も恋も(backing track)
EXTD=YEAR: 1995
EXTT0=
EXTT1=
EXTT2=
PLAYORDER=
